<?xml version="1.0" encoding="UTF-8"?>
<svg width="73px" height="73px" viewBox="0 0 73 73" version="1.1" xmlns="http://www.w3.org/2000/svg" xmlns:xlink="http://www.w3.org/1999/xlink">
    <title>logo</title>
    <defs>
        <linearGradient x1="50%" y1="0%" x2="50%" y2="100%" id="linearGradient-1">
            <stop stop-color="#75A2C7" offset="0%"></stop>
            <stop stop-color="#416995" offset="100%"></stop>
        </linearGradient>
    </defs>
    <g id="Page-1" stroke="none" stroke-width="1" fill="none" fill-rule="evenodd">
        <g id="logo" fill-rule="nonzero">
            <rect id="Rectangle" fill="url(#linearGradient-1)" x="0" y="0" width="73" height="73" rx="9"></rect>
            <path d="M15.052,30.4 L16.384,30.4 L16.384,41.848 L23.44,41.848 L23.44,43 L15.052,43 L15.052,30.4 Z M29.111,43.09 C28.199,43.09 27.377,42.886 26.645,42.478 C25.913,42.058 25.337,41.482 24.917,40.75 C24.497,40.018 24.287,39.19 24.287,38.266 C24.287,37.342 24.497,36.514 24.917,35.782 C25.337,35.05 25.913,34.48 26.645,34.072 C27.377,33.664 28.199,33.46 29.111,33.46 C30.023,33.46 30.845,33.664 31.577,34.072 C32.309,34.48 32.879,35.05 33.287,35.782 C33.707,36.514 33.917,37.342 33.917,38.266 C33.917,39.19 33.707,40.018 33.287,40.75 C32.879,41.482 32.309,42.058 31.577,42.478 C30.845,42.886 30.023,43.09 29.111,43.09 Z M29.111,41.956 C29.783,41.956 30.383,41.806 30.911,41.506 C31.451,41.194 31.871,40.756 32.171,40.192 C32.471,39.628 32.621,38.986 32.621,38.266 C32.621,37.546 32.471,36.904 32.171,36.34 C31.871,35.776 31.451,35.344 30.911,35.044 C30.383,34.732 29.783,34.576 29.111,34.576 C28.439,34.576 27.833,34.732 27.293,35.044 C26.765,35.344 26.345,35.776 26.033,36.34 C25.733,36.904 25.583,37.546 25.583,38.266 C25.583,38.986 25.733,39.628 26.033,40.192 C26.345,40.756 26.765,41.194 27.293,41.506 C27.833,41.806 28.439,41.956 29.111,41.956 Z M45.2921,33.532 L45.2921,41.848 C45.2921,43.456 44.8961,44.644 44.1041,45.412 C43.3241,46.192 42.1421,46.582 40.5581,46.582 C39.6821,46.582 38.8481,46.45 38.0561,46.186 C37.2761,45.934 36.6401,45.58 36.1481,45.124 L36.7961,44.152 C37.2521,44.56 37.8041,44.878 38.4521,45.106 C39.1121,45.334 39.8021,45.448 40.5221,45.448 C41.7221,45.448 42.6041,45.166 43.1681,44.602 C43.7321,44.05 44.0141,43.186 44.0141,42.01 L44.0141,40.804 C43.6181,41.404 43.0961,41.86 42.4481,42.172 C41.8121,42.484 41.1041,42.64 40.3241,42.64 C39.4361,42.64 38.6261,42.448 37.8941,42.064 C37.1741,41.668 36.6041,41.122 36.1841,40.426 C35.7761,39.718 35.5721,38.92 35.5721,38.032 C35.5721,37.144 35.7761,36.352 36.1841,35.656 C36.6041,34.96 37.1741,34.42 37.8941,34.036 C38.6141,33.652 39.4241,33.46 40.3241,33.46 C41.1281,33.46 41.8541,33.622 42.5021,33.946 C43.1501,34.27 43.6721,34.738 44.0681,35.35 L44.0681,33.532 L45.2921,33.532 Z M40.4501,41.506 C41.1341,41.506 41.7521,41.362 42.3041,41.074 C42.8561,40.774 43.2821,40.36 43.5821,39.832 C43.8941,39.304 44.0501,38.704 44.0501,38.032 C44.0501,37.36 43.8941,36.766 43.5821,36.25 C43.2821,35.722 42.8561,35.314 42.3041,35.026 C41.7641,34.726 41.1461,34.576 40.4501,34.576 C39.7661,34.576 39.1481,34.72 38.5961,35.008 C38.0561,35.296 37.6301,35.704 37.3181,36.232 C37.0181,36.76 36.8681,37.36 36.8681,38.032 C36.8681,38.704 37.0181,39.304 37.3181,39.832 C37.6301,40.36 38.0561,40.774 38.5961,41.074 C39.1481,41.362 39.7661,41.506 40.4501,41.506 Z M52.736,43.09 C51.824,43.09 51.002,42.886 50.27,42.478 C49.538,42.058 48.962,41.482 48.542,40.75 C48.122,40.018 47.912,39.19 47.912,38.266 C47.912,37.342 48.122,36.514 48.542,35.782 C48.962,35.05 49.538,34.48 50.27,34.072 C51.002,33.664 51.824,33.46 52.736,33.46 C53.648,33.46 54.47,33.664 55.202,34.072 C55.934,34.48 56.504,35.05 56.912,35.782 C57.332,36.514 57.542,37.342 57.542,38.266 C57.542,39.19 57.332,40.018 56.912,40.75 C56.504,41.482 55.934,42.058 55.202,42.478 C54.47,42.886 53.648,43.09 52.736,43.09 Z M52.736,41.956 C53.408,41.956 54.008,41.806 54.536,41.506 C55.076,41.194 55.496,40.756 55.796,40.192 C56.096,39.628 56.246,38.986 56.246,38.266 C56.246,37.546 56.096,36.904 55.796,36.34 C55.496,35.776 55.076,35.344 54.536,35.044 C54.008,34.732 53.408,34.576 52.736,34.576 C52.064,34.576 51.458,34.732 50.918,35.044 C50.39,35.344 49.97,35.776 49.658,36.34 C49.358,36.904 49.208,37.546 49.208,38.266 C49.208,38.986 49.358,39.628 49.658,40.192 C49.97,40.756 50.39,41.194 50.918,41.506 C51.458,41.806 52.064,41.956 52.736,41.956 Z" id="Shape" fill="#FFFFFF"></path>
        </g>
    </g>
</svg>