<svg width="73" height="73" viewBox="0 0 73 73" fill="none" xmlns="http://www.w3.org/2000/svg">
<rect width="73" height="73" rx="9" fill="#2D9CDB"/>
<path d="M15.052 30.4H16.384V41.848H23.44V43H15.052V30.4ZM29.111 43.09C28.199 43.09 27.377 42.886 26.645 42.478C25.913 42.058 25.337 41.482 24.917 40.75C24.497 40.018 24.287 39.19 24.287 38.266C24.287 37.342 24.497 36.514 24.917 35.782C25.337 35.05 25.913 34.48 26.645 34.072C27.377 33.664 28.199 33.46 29.111 33.46C30.023 33.46 30.845 33.664 31.577 34.072C32.309 34.48 32.879 35.05 33.287 35.782C33.707 36.514 33.917 37.342 33.917 38.266C33.917 39.19 33.707 40.018 33.287 40.75C32.879 41.482 32.309 42.058 31.577 42.478C30.845 42.886 30.023 43.09 29.111 43.09ZM29.111 41.956C29.783 41.956 30.383 41.806 30.911 41.506C31.451 41.194 31.871 40.756 32.171 40.192C32.471 39.628 32.621 38.986 32.621 38.266C32.621 37.546 32.471 36.904 32.171 36.34C31.871 35.776 31.451 35.344 30.911 35.044C30.383 34.732 29.783 34.576 29.111 34.576C28.439 34.576 27.833 34.732 27.293 35.044C26.765 35.344 26.345 35.776 26.033 36.34C25.733 36.904 25.583 37.546 25.583 38.266C25.583 38.986 25.733 39.628 26.033 40.192C26.345 40.756 26.765 41.194 27.293 41.506C27.833 41.806 28.439 41.956 29.111 41.956ZM45.2921 33.532V41.848C45.2921 43.456 44.8961 44.644 44.1041 45.412C43.3241 46.192 42.1421 46.582 40.5581 46.582C39.6821 46.582 38.8481 46.45 38.0561 46.186C37.2761 45.934 36.6401 45.58 36.1481 45.124L36.7961 44.152C37.2521 44.56 37.8041 44.878 38.4521 45.106C39.1121 45.334 39.8021 45.448 40.5221 45.448C41.7221 45.448 42.6041 45.166 43.1681 44.602C43.7321 44.05 44.0141 43.186 44.0141 42.01V40.804C43.6181 41.404 43.0961 41.86 42.4481 42.172C41.8121 42.484 41.1041 42.64 40.3241 42.64C39.4361 42.64 38.6261 42.448 37.8941 42.064C37.1741 41.668 36.6041 41.122 36.1841 40.426C35.7761 39.718 35.5721 38.92 35.5721 38.032C35.5721 37.144 35.7761 36.352 36.1841 35.656C36.6041 34.96 37.1741 34.42 37.8941 34.036C38.6141 33.652 39.4241 33.46 40.3241 33.46C41.1281 33.46 41.8541 33.622 42.5021 33.946C43.1501 34.27 43.6721 34.738 44.0681 35.35V33.532H45.2921ZM40.4501 41.506C41.1341 41.506 41.7521 41.362 42.3041 41.074C42.8561 40.774 43.2821 40.36 43.5821 39.832C43.8941 39.304 44.0501 38.704 44.0501 38.032C44.0501 37.36 43.8941 36.766 43.5821 36.25C43.2821 35.722 42.8561 35.314 42.3041 35.026C41.7641 34.726 41.1461 34.576 40.4501 34.576C39.7661 34.576 39.1481 34.72 38.5961 35.008C38.0561 35.296 37.6301 35.704 37.3181 36.232C37.0181 36.76 36.8681 37.36 36.8681 38.032C36.8681 38.704 37.0181 39.304 37.3181 39.832C37.6301 40.36 38.0561 40.774 38.5961 41.074C39.1481 41.362 39.7661 41.506 40.4501 41.506ZM52.736 43.09C51.824 43.09 51.002 42.886 50.27 42.478C49.538 42.058 48.962 41.482 48.542 40.75C48.122 40.018 47.912 39.19 47.912 38.266C47.912 37.342 48.122 36.514 48.542 35.782C48.962 35.05 49.538 34.48 50.27 34.072C51.002 33.664 51.824 33.46 52.736 33.46C53.648 33.46 54.47 33.664 55.202 34.072C55.934 34.48 56.504 35.05 56.912 35.782C57.332 36.514 57.542 37.342 57.542 38.266C57.542 39.19 57.332 40.018 56.912 40.75C56.504 41.482 55.934 42.058 55.202 42.478C54.47 42.886 53.648 43.09 52.736 43.09ZM52.736 41.956C53.408 41.956 54.008 41.806 54.536 41.506C55.076 41.194 55.496 40.756 55.796 40.192C56.096 39.628 56.246 38.986 56.246 38.266C56.246 37.546 56.096 36.904 55.796 36.34C55.496 35.776 55.076 35.344 54.536 35.044C54.008 34.732 53.408 34.576 52.736 34.576C52.064 34.576 51.458 34.732 50.918 35.044C50.39 35.344 49.97 35.776 49.658 36.34C49.358 36.904 49.208 37.546 49.208 38.266C49.208 38.986 49.358 39.628 49.658 40.192C49.97 40.756 50.39 41.194 50.918 41.506C51.458 41.806 52.064 41.956 52.736 41.956Z" fill="white"/>
</svg>
